<?xml version="1.0" encoding="utf-8"?>
<svg version="1.1" id="Layer_1" xmlns="http://www.w3.org/2000/svg" x="0px" y="0px" width="100%" viewBox="61.186 62.334 939.82 908.782" enable-background="new 0 0 1024 1024">
  <rect x="148.886" y="198.849" width="746.743" height="617.641" style="stroke: rgb(0, 0, 0); fill: rgb(255, 255, 255);"/>
  <path opacity="1.000000" stroke="none" d="M 339.699 823.955 C 335.661 823.285 332 822.895 328.455 822.031 C 318.392 819.581 308.148 818.62 297.878 817.559 C 283.95 816.12 271.468 811.069 261.122 801.24 C 253.872 794.353 244.572 791.765 235.248 788.943 C 223.687 785.444 211.421 784.151 200.703 777.845 C 196.971 775.649 192.387 775.581 188.112 774.885 C 151.732 768.958 126.649 749.86 113.92 714.295 C 106.71 694.151 104.496 673.586 102.924 652.658 C 102.239 643.544 101.551 634.376 97.967 625.749 C 95.188 619.061 94.927 611.777 93.265 604.822 C 90.816 594.575 86.453 584.996 82.802 575.171 C 79.72 566.873 77.379 558.765 83.302 550.489 C 85.368 547.602 86.547 543.906 87.471 540.406 C 91.483 525.212 98.414 511.135 103.956 496.531 C 106 491.144 106.299 485.454 106.922 479.848 C 107.989 470.249 109.045 460.786 112.435 451.533 C 116.319 440.934 118.377 429.728 121.796 418.914 C 125.011 408.744 129.857 399.9 137.558 392.719 C 150.317 380.821 160.917 366.64 175.714 356.886 C 186.414 349.834 196.964 342.596 206.669 334.127 C 214.275 327.49 220.677 319.992 226.432 311.75 C 237.679 295.642 249.837 280.107 263.076 265.708 C 274.303 253.498 288.379 244.234 304.316 238.373 C 310.889 235.956 317.416 233.545 324.342 232.277 C 329.209 231.386 332.82 227.743 337.234 225.839 C 353.619 218.77 370.772 213.87 387.584 208.003 C 397.133 204.671 406.532 200.788 415.711 196.534 C 442.912 183.927 471.438 178.833 501.262 180.733 C 504.718 180.953 508.218 181.703 511.531 182.739 C 526.354 187.371 541.326 187.432 556.494 184.906 C 570.117 182.637 583.733 180.466 597.276 177.633 C 607.952 175.399 619.106 175.092 629.782 179.329 C 633.935 180.977 637.406 183.499 640.388 186.635 C 643.515 189.925 647.225 191.726 651.545 192.829 C 657.027 194.227 662.423 195.97 667.832 197.64 C 672.162 198.978 676.406 198.912 680.489 196.911 C 685.995 194.212 691.76 194.358 697.613 195.061 C 704.589 195.898 711.522 195.916 718.509 194.767 C 729.083 193.029 738.827 194.622 746.155 203.386 C 750.246 208.277 756.461 210.17 761.049 214.046 C 769.398 221.099 779.419 223.282 789.353 225.733 C 797.068 227.636 805.211 227.082 813.077 228.652 C 819.481 229.931 825.638 231.372 831.445 234.682 C 840 239.559 849.051 243.459 858.997 244.66 C 879.046 247.081 893.648 258.313 905.672 273.618 C 908.446 277.148 910.839 280.979 913.379 284.69 C 915.008 287.072 916.029 289.654 916.098 292.606 C 916.233 298.42 916.369 304.236 916.681 310.042 C 916.957 315.188 916.955 320.467 919.788 325.055 C 925.697 334.624 926.308 345.581 927.955 356.224 C 929.721 367.632 929.544 379.118 928.351 390.604 C 927.974 394.239 928.262 397.906 928.711 401.57 C 929.561 408.503 930.021 415.426 929.235 422.463 C 927.856 434.817 930.577 447.03 931.215 459.322 C 932.103 476.421 926.963 491.488 918.684 506.309 C 909.615 522.548 901.117 539.208 894.783 556.813 C 893.706 559.809 892.516 562.81 890.148 565.012 C 880.515 573.973 877.133 585.862 873.798 598.015 C 871.375 606.845 871.634 616.114 868.079 624.782 C 864.799 632.777 860.171 639.663 855.053 646.483 C 850.289 652.831 845.667 659.286 840.639 665.429 C 838.014 668.636 835.402 671.904 832.402 674.741 C 822.382 684.215 814.612 695.729 804.43 705.086 C 799.983 709.172 795.119 712.655 790.206 715.915 C 776.603 724.939 763.34 734.335 751.603 745.72 C 748.45 748.778 744.575 750.739 741.166 753.401 C 735.135 758.111 729.621 763.297 724.123 768.624 C 717.873 774.679 708.81 776.429 701.121 780.36 C 696.933 782.5 692.969 784.52 689.817 788.24 C 683.655 795.511 675.484 800.638 668.629 807.212 C 666.528 809.227 663.722 810.852 660.946 811.758 C 650.604 815.136 640.821 819.695 631.403 825.051 C 626.129 828.049 620.565 829.194 614.596 828.773 C 605.896 828.159 597.92 829.694 590.323 834.582 C 584.987 838.015 578.286 838.356 571.959 838.596 C 558.149 839.118 544.329 839.358 530.513 839.713 C 530.179 839.721 529.808 839.635 529.519 839.752 C 518.625 844.139 508.018 841.06 497.335 838.669 C 487.831 836.541 477.865 839.178 468.503 836.66 C 458.266 833.906 448.001 835.326 437.76 834.977 C 423.068 834.476 408.703 831.198 394.064 830.319 C 382.267 829.611 370.492 828.529 358.694 827.828 C 352.292 827.447 346.431 824.716 339.699 823.955 M 753.748 334.448 C 766.464 343.541 769.999 355.756 765.907 370.495 C 761.459 386.52 751.825 399.481 740.865 411.462 C 710.601 444.547 673.862 469.28 635.423 491.568 C 598.894 512.749 560.535 530.206 520.639 544.044 C 467.375 562.519 413.211 576.358 356.062 573.023 C 337.783 571.956 320.094 568.567 303.513 560.402 C 282.127 549.871 270.651 527.843 274.946 505.167 C 277.712 490.562 283.845 477.313 291.628 464.782 C 301.965 448.137 314.679 433.404 328.391 419.488 C 330.169 417.683 332.14 415.993 333.269 413.097 C 332.128 413.257 331.552 413.17 331.205 413.412 C 327.386 416.078 323.46 418.617 319.831 421.525 C 290.418 445.092 264.561 471.665 248.786 506.613 C 241.761 522.176 237.32 538.413 239.935 555.571 C 243.187 576.904 256.098 591.566 274.375 601.98 C 294.176 613.262 315.942 618.138 338.264 620.188 C 375.769 623.632 413.115 622.477 449.927 613.438 C 450.956 613.185 452.174 612.516 453.815 614.786 C 415.972 628.686 377.485 633.518 337.749 629.625 C 350.108 633.842 363.004 635.319 375.812 636.139 C 397.781 637.547 419.767 636.385 441.574 633.171 C 494.422 625.381 544.505 608.856 592.108 584.782 C 634.048 563.572 673.261 538.203 708.648 507.13 C 735.17 483.841 759.757 458.809 777.789 428.134 C 787.729 411.227 795.484 393.578 796.152 373.353 C 796.968 348.693 783.502 333.219 763.228 324.89 C 742.019 316.176 719.703 316.067 697.297 317.157 C 696.537 317.194 695.794 317.589 693.768 318.206 C 700.147 319.049 705.202 319.686 710.247 320.389 C 725.329 322.49 740.141 325.457 753.748 334.448 M 389.806 502.291 C 393.8 473.894 406.739 449.59 424.396 427.563 C 442.569 404.894 464.116 385.752 488.395 369.966 C 532.946 340.998 580.7 321.786 635.184 324.692 C 636.885 324.783 638.88 325.393 640.636 322.992 C 634.339 318.567 627.224 316.521 619.975 315.052 C 589.906 308.959 560.012 311.194 530.321 317.645 C 496.915 324.903 465.319 337.074 435.47 353.731 C 405.027 370.72 377.063 390.876 354.096 417.448 C 338.046 436.016 324.72 456.241 316.973 479.662 C 312.572 492.965 309.625 506.627 312.398 520.858 C 313.864 528.385 318.32 531.433 325.532 528.785 C 330.665 526.901 334.538 527.624 338.722 531.24 C 347.151 538.525 357.037 541.224 368.05 538.403 C 373.841 536.919 379.455 535.069 385.677 536.045 C 389.199 536.598 391.517 534.346 390.561 530.475 C 388.322 521.414 388.627 512.326 389.806 502.291 M 475.599 681.692 C 495.059 681.985 514.104 678.852 532.794 673.885 C 597.191 656.772 651.813 622.976 698.394 575.763 C 702.486 571.616 706.838 567.463 709.947 561.221 C 706.435 562.716 704.351 564.524 702.221 566.308 C 666.771 596 627.933 619.864 583.695 634.102 C 548.928 645.292 513.443 650.58 476.902 645.073 C 473.916 644.623 470.982 644.881 468.004 645.64 C 439.795 652.834 411.324 655.367 382.477 649.992 C 375.075 648.612 367.722 646.976 358.837 645.148 C 360.799 646.94 361.589 647.745 362.463 648.447 C 373.465 657.286 385.69 663.998 398.771 669.194 C 423.135 678.873 448.478 682.656 475.599 681.692 M 551.071 412.758 C 548.633 418.284 544.904 422.631 539.352 425.178 C 534.94 427.202 530.184 428.057 525.464 429.077 C 518.775 430.523 511.821 430.931 504.667 433.727 C 507.667 435.664 510.242 436.087 512.851 436.436 C 519.782 437.362 526.637 438.656 533.383 440.539 C 543.782 443.442 550.415 449.858 552.488 460.649 C 553.803 467.494 555.091 474.344 556.503 481.169 C 556.94 483.281 556.716 485.841 559.61 487.261 C 560.943 485.285 561.351 483.214 561.712 481.124 C 562.759 475.074 563.788 469.022 564.855 462.976 C 566.928 451.239 573.114 443.35 585.168 440.441 C 591.316 438.957 597.41 437.308 603.697 436.521 C 605.614 436.281 607.707 436.369 608.363 433.864 C 606.506 431.929 604.282 431.443 601.983 430.973 C 595.961 429.743 589.917 428.578 583.968 427.052 C 573.786 424.439 567.627 417.897 565.844 407.452 C 564.728 400.911 563.942 394.304 562.564 387.821 C 562.005 385.187 562.786 381.661 558.583 379.708 C 553.812 390.129 554.77 401.619 551.071 412.758 Z" style=""/>
  <rect x="61.376" y="64.529" width="940.867" height="192.403" style="stroke: rgb(0, 0, 0);"/>
  <rect x="59.668" y="51.112" width="943.529" height="51.622" style="stroke: rgb(0, 0, 0);"/>
  <rect x="56.905" y="44.478" width="118.277" height="927.104" style="stroke: rgb(0, 0, 0);"/>
  <rect x="60.414" y="729.699" width="943.156" height="240.216" style="stroke: rgb(0, 0, 0);"/>
  <rect x="822.904" y="51.879" width="180.436" height="721.427" style="stroke: rgb(0, 0, 0);"/>
  <rect x="726.655" y="610.863" width="181.39" height="190.984" style="stroke: rgb(0, 0, 0);"/>
  <rect x="111.137" y="166.11" width="186.5" height="202.464" style="stroke: rgb(0, 0, 0);"/>
  <rect x="54.865" y="38.239" width="948.519" height="188.178" style="stroke: rgb(0, 0, 0);"/>
  <rect x="60.962" y="739.973" width="940.108" height="232.727" style="stroke: rgb(0, 0, 0);"/>
</svg>